<?xml version="1.0" encoding="utf-8"?>
<!-- Generator: Adobe Illustrator 28.3.0, SVG Export Plug-In . SVG Version: 6.00 Build 0)  -->
<svg version="1.1" id="Social_Sparks_logo" xmlns="http://www.w3.org/2000/svg" xmlns:xlink="http://www.w3.org/1999/xlink" x="0px"
	 y="0px" viewBox="0 0 350 55.6" style="enable-background:new 0 0 350 55.6;" xml:space="preserve">
<style type="text/css">
	.st0{fill:#1A1818;}
	.st1{fill:#845EC2;}
</style>
<g id="Social">
	<path id="l" class="dark:color-white st0" d="M143.4,3.8h5.1V35c0,2.9,0.9,4.1,3.2,4.1c0.8,0,1.6-0.1,2.4-0.3v4.4c-1.2,0.3-2.4,0.5-3.6,0.5
		c-4,0-7-2.1-7-7.6L143.4,3.8z"/>
	<path id="a_00000055686505897968424890000005327224669745249931_" class="st0" d="M113.7,17.1c3-1.4,6.3-2.1,9.6-2
		c7.7,0,11.4,3.7,11.4,10.5V43H130l-0.1-3.2c0-0.7,0-1.5,0.2-2.2H130c-0.3,0.8-3.3,6-9.5,6c-5,0-8.6-3-8.6-8c0-6.6,6.4-10,17.8-8.4
		v-1.4c0-4.7-2.8-6.4-7.1-6.4c-3.1,0-6.2,0.8-8.9,2.3V17.1z M129.6,30.8c-8.9-1.4-12.6,1-12.6,4.7c0,2.4,1.7,4.1,4.5,4.1
		C126.1,39.5,129.6,35,129.6,30.8"/>
	<path id="i" class="st0" d="M102,4.7c1.6-0.1,3.1,1.2,3.2,2.8c0,0.1,0,0.2,0,0.3c-0.1,1.7-1.5,3.1-3.3,3c-1.7-0.1-3-1.4-3-3
		c-0.1-1.6,1.2-3,2.8-3.1C101.8,4.7,101.9,4.7,102,4.7 M104.6,43h-5.1V15.7h5.1V43z"/>
	<path id="c" class="st0" d="M84,39.1c2.9,0,5.8-0.8,8.3-2.4v4.7c-2.6,1.5-5.6,2.2-8.5,2.2c-8.4,0-14.2-6-14.2-14.3S75.4,15,83.8,15
		c2.9,0,5.8,0.7,8.4,2.1V22c-2.4-1.6-5.2-2.4-8.1-2.4c-5.4,0-9.3,4-9.3,9.8S78.5,39.1,84,39.1"/>
	<path id="o" class="st0" d="M63.4,29.4c0,8.2-5.9,14.3-14.1,14.3c-8.1,0-14-6-14-14.3s5.9-14.3,14-14.3
		C57.4,15.1,63.4,21.1,63.4,29.4 M58.5,29.4c0-5.8-3.9-9.9-9.2-9.9c-5.2,0-9.1,4.1-9.1,9.9s3.9,9.9,9.1,9.9
		C54.6,39.2,58.5,35.1,58.5,29.4"/>
	<path id="s_00000077313160390836652260000008622872530661135004_" class="st0" d="M6,41.3v-5.2c3.4,1.7,7.2,2.7,11.1,2.8
		c4.9,0,8.6-2,8.6-5.6s-2.1-5.6-8.7-7.9C9.4,22.8,5.8,19.6,5.8,13.6C5.8,7,11.4,3.1,18.9,3.1c3.4,0,6.7,0.7,9.8,2v5
		c-3-1.5-6.2-2.2-9.5-2.3c-4.8,0-8.2,2.2-8.2,5.7c0,3.2,1.9,5.5,8.6,7.8C27.1,24,30.7,27.1,30.7,33c0,6.7-5.2,10.7-13.4,10.7
		C13.5,43.6,9.6,42.8,6,41.3"/>
</g>
<g id="Sparkz">
	<path id="z" class="st1" d="M344.1,54.3h-36L327,20h-13.5v-4.2H335l-18.8,34.3h27.9V54.3z"/>
	<path id="k" class="st1" d="M298.9,27l10.6,16h-5.8l-8.6-13.2l-4.7,5.1V43h-5V3.8h5.1v25.7l12.3-13.7h6L298.9,27z"/>
	<path id="r" class="st1" d="M264.3,15.7h4.7l0.1,3.8c0.1,1-0.1,1.9-0.1,2h0.1c1.6-3.9,4.5-6.5,8.4-6.5c0.5,0,1.1,0.1,1.6,0.2v4.9
		c-0.5-0.1-0.9-0.2-1.4-0.2c-5.3,0-8.3,5.8-8.3,11.1v12h-5.1L264.3,15.7z"/>
	<path id="a" class="st1" d="M234.7,17.1c3-1.4,6.3-2.1,9.6-2c7.7,0,11.4,3.7,11.4,10.5V43H251l-0.1-3.2c0-0.7,0-1.5,0.2-2.2H251
		c-0.3,0.8-3.3,6-9.5,6c-5,0-8.6-3-8.6-8c0-6.6,6.4-10,17.8-8.4v-1.4c0-4.7-2.8-6.4-7.1-6.4c-3.1,0-6.2,0.8-8.9,2.3V17.1z
		 M250.6,30.8c-8.9-1.4-12.6,1-12.6,4.7c0,2.4,1.7,4.1,4.5,4.1C247.1,39.5,250.6,35,250.6,30.8"/>
	<path id="p" class="st1" d="M200.9,15.7h4.7l0.1,2.8c0,0.7,0,1.3-0.2,2h0.1c2-3.4,5.7-5.5,9.6-5.5c7.2,0,12.6,5.8,12.6,14.3
		c0,8.6-5.4,14.3-12.5,14.3c-3.9,0-7.5-2-9.5-5.3h-0.1c0.1,0.7,0.2,1.5,0.2,2.2V55h-5.1L200.9,15.7z M223,29.4
		c0-5.7-3.4-9.9-8.4-9.9c-4.1,0-8.6,3-8.6,9.9s4.5,9.9,8.6,9.9C219.6,39.2,223,35.1,223,29.4"/>
	<path id="s" class="st1" d="M169.2,41.3v-5.2c3.4,1.7,7.2,2.7,11.1,2.8c4.9,0,8.6-2,8.6-5.6s-2.1-5.6-8.7-7.9
		c-7.5-2.6-11.1-5.8-11.1-11.8c0-6.6,5.6-10.5,13.1-10.5c3.4,0,6.7,0.7,9.8,2v5c-3-1.5-6.2-2.2-9.5-2.3c-4.8,0-8.2,2.2-8.2,5.7
		c0,3.2,1.9,5.5,8.6,7.8c7.5,2.7,11.2,5.8,11.2,11.7c0,6.7-5.2,10.7-13.4,10.7C176.7,43.6,172.8,42.8,169.2,41.3"/>
</g>
</svg>
